/* XPM */
static char * WHITE_RABBIT_DOOR_2_xpm[] = {
"128 128 16 1",
" 	c None",
".	c #5D5D5D",
"+	c #202020",
"@	c #D4CBCB",
"#	c #F7F7F7",
"$	c #A89F9F",
"%	c #CB55CB",
"&	c #EEB1D4",
"*	c #6D2705",
"=	c #650000",
"-	c #D46D05",
";	c #EECB36",
">	c #7EB9CB",
",	c #973D05",
"'	c #A80505",
")	c #E5120B",
"                                                                                                                                ",
"                                                                                                                                ",
"                                                                                                                                ",
"                                                                                                                                ",
"                                                                                                                                ",
"                                                                                                                                ",
"                                                                                                                                ",
"                                                                                                                                ",
"                                                                                                                                ",
"                                                                                                                                ",
"                                                                                                                                ",
"                                                                                                                                ",
"                                                                                                                                ",
"                                                                                                                                ",
"                                                                                                                                ",
"                                                                                                                                ",
"                                                                                                                                ",
"                                                                                                                                ",
"                                                                                                                                ",
"                                                                                                                                ",
"                                                                                                                                ",
"                                                                                                                                ",
"                                                                                                                                ",
"                                                                                                                                ",
"                                                                                                                                ",
"                                                                                                                                ",
"                                                                                                                                ",
"                                                                                                                                ",
"                                                                                                                                ",
"                                                                                                                                ",
"                                                                                                                                ",
"                                                                                                                                ",
"                                                                                                                                ",
"                                                                                                                                ",
"                                                                                                                                ",
"                                                                                                                                ",
"                                                                                                                                ",
"                                                                                                                                ",
"                                                                                                                                ",
"                                                                                                                                ",
"                                                                                                                                ",
"                                                                                                                                ",
"                                                                                                                                ",
"                                                                                                                                ",
"                                                                                                                                ",
"                                                                                                                                ",
"                                                                                                                                ",
"                                                                                                                                ",
"                                                                                                                                ",
"                                                                                                                                ",
"                                                                                                                                ",
"                                                                                                                                ",
"                                                                                                                                ",
"                                                                                                                                ",
"                                                                                                                                ",
"                                                                                                                                ",
"                                                                                                                                ",
"                                                                                                                                ",
"                                                                                                                                ",
"                                                                                                                                ",
"                                                                                                                                ",
"                                                                                                                                ",
"                                                                                                                                ",
"                                                                                                                                ",
"                                                                                                                                ",
"                                                                                                                                ",
"                                                                                                                                ",
"                                                                                                                                ",
"                                                                                                                                ",
"                                                                                                                                ",
"                                                                                                                                ",
"                                                                                                                                ",
"                                                                                                                                ",
"                                                                                                                                ",
"                                                                                                                                ",
"                                                                                                                                ",
"                                                                                                                                ",
"                                                                                                                                ",
"                                                                                                                                ",
"                                                                                                                                ",
"                                                                                                                                ",
"                                                                                                                                ",
"                                                                                                                                ",
"                                                                                                                                ",
"                                                                                                                                ",
"                                                                                                                                ",
"                                                                                                                                ",
"                                                                                                                                ",
"                                                                                                                                ",
"                                                                                                                                ",
"                                                                                                                                ",
"                                                                ...                                                             ",
"                                                                +@#.                                                            ",
"                                                            .$$  $@@.                                                           ",
"                                                           +@##$$+#$.                                                           ",
"                                                            +.@##$+@#$                                                          ",
"                                                              +.@@$#$@$                                                         ",
"                                                                .$@@@##                                                         ",
"                                                               +$@###@@.                                                        ",
"                                                               .$@@#.$#@$                                                       ",
"                                                              +$$$@.@##%$                                                       ",
"                                                       .++    .@$$$.$%#&%      **                                               ",
"                                                      $#@@+  +$#@@@@%&@&=     *-;***                                            ",
"                                                     .#@#$#+$##@@##@%&=#@>>  *,;-*;;*                                           ",
"                                                     $@#@$===..#@###@&&@')>  *,,,,*-*                                           ",
"                                                     .@$=='=$#########>>='  -.$$-;-**                                           ",
"                                                     +$='')'=.$$@@###>#>$@+-.$@)#$-;-                                           ",
"                                                      +=')))'=.$$@##@>>#$#..$@#)##$-;,                                          ",
"                                                      =')))''=-..$$@@@@''.$#.##)###-;-                                          ",
"                                                      ='))''='-;+..$$$.@=+$.@@#)###$;-,                                         ",
"                                                      ='))'=')'-;-++..$.= *.@@#)###$;;-                                         ",
"                                                      =')''=)))'-;-.$$.   *.$@@)###$;;-                                         ",
"                                                   +++=')'=')'..'-;;..=   ,.$@@@)##$;-,                                         ",
"                                                  +.$+.=)'=''.@#$.=,='.+  ,*$$@@@)#,--,                                         ",
"                                                 +.$@.$=))'='.$@#$)=,.##+  ,$$$@@@),-,                                          ",
"                                               ++.$@@.$='))'==.$@.)-.#@$+  ,.$$$$$,-,*                                          ",
"                                            +++..$@#.+..='))''''=)--@$++    ,,*..,-,*                                           ",
"                                           +..$$$@#.  ++='))))'==,-.++       *,,,,**                                            ",
"                                           +@@@@##+     +=')))'=++++           ***                                              ",
"                                            +$##@+       ='))'=                                                                 ",
"                                             ++++         =''=                                                                  ",
"                                                           ==                                                                   ",
"                                                                                                                                ",
"                                                                                                                                ",
"                                                                                                                                ",
"                                                                                                                                ",
"                                                                                                                                ",
"                                                                                                                                "};
