/* XPM */
static char *WHITE_RABBIT_DOOR_resized[] = {
/* columns rows colors chars-per-pixel */
"128 128 16 1 ",
"  c None",
". c #202020",
"X c #650000",
"o c #6D2705",
"O c #5D5D5D",
"+ c #A80505",
"@ c #973D05",
"# c #E5120B",
"$ c #D46D05",
"% c #EECB36",
"& c #CB55CB",
"* c #7EB9CB",
"= c #A89F9F",
"- c #EEB1D4",
"; c #D4CBCB",
": c gray97",
/* pixels */
"                                                                                                                                ",
"                                                                                                                                ",
"                                                                                                                                ",
"                                                                                                                                ",
"                                                                                                                                ",
"                                                                                                                                ",
"                                                                                                                                ",
"                                                                                                                                ",
"                                                                                                                                ",
"                                                                                                                                ",
"                                                                                                                                ",
"                                                                                                                                ",
"                                                                                                                                ",
"                                                                                                                                ",
"                                                                                                                                ",
"                                                                                                                                ",
"                                                                                                                                ",
"                                                                                                                                ",
"                                                                                                                                ",
"                                                                                                                                ",
"                                                                                                                                ",
"                                                                                                                                ",
"                                                                                                                                ",
"                                                                                                                                ",
"                                                                                                                                ",
"                                                                                                                                ",
"                                                                                                                                ",
"                                                                                                                                ",
"                                                                                                                                ",
"                                                                                                                                ",
"                                                                                                                                ",
"                                                                                                                                ",
"                                                                                                                                ",
"                                                                                                                                ",
"                                                                                                                                ",
"                                                                                                                                ",
"                                                                                                                                ",
"                                                                                                                                ",
"                                                                                                                                ",
"                                                                                                                                ",
"                                                                                                                                ",
"                                                                                                                                ",
"                                                                                                                                ",
"                                                                                                                                ",
"                                                                                                                                ",
"                                                                                                                                ",
"                                                                                                                                ",
"                                                                                                                                ",
"                                                                                                                                ",
"                                                                                                                                ",
"                                                                                                                                ",
"                                                                                                                                ",
"                                                                                                                                ",
"                                                                                                                                ",
"                                                                                                                                ",
"                                                                                                                                ",
"                                                                                                                                ",
"                                                                                                                                ",
"                                                                                                                                ",
"                                                                                                                                ",
"                                                                                                                                ",
"                                                                                                                                ",
"                                                                                                                                ",
"                                                                                                                                ",
"                                                                                                                                ",
"                                                                                                                                ",
"                                                                                                                                ",
"                                                                                                                                ",
"                                                                                                                                ",
"                                                                                                                                ",
"                                                                                                                                ",
"                                                                                                                                ",
"                                                                                                                                ",
"                                                                                                                                ",
"                                                                                                                                ",
"                                                                                                                                ",
"                                                                                                                                ",
"                                                                                                                                ",
"                                                                                                                                ",
"                                                                                                                                ",
"                                                                                                                                ",
"                                                                                                                                ",
"                                                                                                                                ",
"                                                                                                                                ",
"                                                                                                                                ",
"                                                                                                                                ",
"                                                                                                                                ",
"                                                                                                                                ",
"                                                                                                                                ",
"                                                                                                                                ",
"                                                                                                                                ",
"                                                             OOO                                                                ",
"                                                            O:;.                                                                ",
"                                                           O;;=  ==O                                                            ",
"                                                           O=:.==::;.                                                           ",
"                                                          =:;.=::;O.                                                            ",
"                                                         =;=:=;;O.                                                              ",
"                                                         ::;;;=O                                                                ",
"                                                        O;;:::;=.                                                               ",
"                                                       =;:=O:;;=O                                                               ",
"                                                       =&::;O;===.                                                              ",
"                                               oo      &-:&=O===;O    ..O                                                       ",
"                                            ooo%$o     X-;-&;;;;:=.  .;;:=                                                      ",
"                                           o%%o$%@o  **;:X-&;::;;::=.:=:;:O                                                     ",
"                                           o$o@@@@o  *#+;--;:::;:OOXXX=;:;=                                                     ",
"                                           oo$%$==O$  +X**:::::::::=X+XX=;O                                                     ",
"                                           $%$=:#;=O$.;=*:*:::;;==OX+#++X=.                                                     ",
"                                          @%$=::#:;=OO:=:**;::;==OX+###+X.                                                      ",
"                                          $%$:::#::O:=O++;;;;==OO$X++###+X                                                      ",
"                                         @$%=:::#:;;O=.X;O===OO.%$+X++##+X                                                      ",
"                                         $%%=:::#:;;Oo XO=OO..$%$+#+X+##+X                                                      ",
"                                         $%%=:::#;;=Oo   O==O$%$+###X++#+X                                                      ",
"                                         @$%=::#;;;=O@   XOO%%$+OO+#+X+#+X...                                                   ",
"                                         @$$@:#;;;==o@  .O+X@XO=:;O++X+#XO.=O.                                                  ",
"                                          @$@#;;;===@  .::O@X#=:;=O+X+##X=O;=O.                                                 ",
"                                          o@$@=====O@  .=;:O$#O;=OXX+##+X=O;;=O..                                               ",
"                                           o@$@OOo@@    ..=;$$#X++++##+XOO.O:;=OO...                                            ",
"                                            oo@@@@o       ..O$@XX+####+X..  O:;===OO.                                           ",
"                                              ooo           ....X+###+X.     .::;;;;.                                           ",
"                                                                 X+##+X       .;::=.                                            ",
"                                                                  X++X         ....                                             ",
"                                                                   XX                                                           ",
"                                                                                                                                ",
"                                                                                                                                ",
"                                                                                                                                ",
"                                                                                                                                ",
"                                                                                                                                ",
"                                                                                                                                "
};
