/* XPM */
static char *CAT_1_resized[] = {
/* columns rows colors chars-per-pixel */
"400 9 2 1 ",
"  c None",
". c white",
/* pixels */
"..    ...   .........   ...          ...          ......           .........   ..    ....   .........   .......     .........                                                                                                                                                                                                                                                                                   ",
"..    ...   ....    .   ...          ...          .......           ........   ..     ...   ...    .    ........    ....                                                                                                                                                                                                                                                                                        ",
"..    ...   ...         ...          ...         ...   ...            ...      ..    ....   ...         ...   ...   ...                                                                                                                                                                                                                                                                                         ",
".........   ........    ...          ...         ...   ...            ...      ..........   .......     ...   ...   ........                                                                                                                                                                                                                                                                                    ",
".........   .......     ...          ...         ...   ...            ...      ..........   ......      ........    .......                                                                                                                                                                                                                                                                                     ",
"..    ...   ...         ...          ...         ...   ...            ...      ..     ...   ...         .......     ...                                                                                                                                                                                                                                                                                         ",
"..    ...   ...         ...          ...         ...   ...            ...      ..    ....   ...         ... ..      ...         ...          ..          ...         ...         ...         ...          ...         ...         ...         ...         ...          ...         ...         ...         ...          ..          ...         ...         ...         ...          ..          ...         ...",
"..    ...   .........   .........    ........     .......             ...      ..    ....   ........    ...  . .    ........    ...         ....         ...         ...         ...         ...          ...         ...         ...         ...         ...          ...         ...         ...         ...         ....         ...         ...         ...         ...          ...         ...         ...",
"..    ...   .........   ..........   .........    ......              ...      ..    ....   .........   ...   ...   .........   ...         ....         ...         ...         ...         ...          ...         ...         ...         ...         ...          ...         ...         ...         ...         ....         ...         ...         ...         ...          ...         ...         ..."
};
