/* XPM */
static char *CAT_3_resized[] = {
/* columns rows colors chars-per-pixel */
"400 23 2 1 ",
"  c None",
". c white",
/* pixels */
"                                                                                                                                    ...                                                                                                                                                                                                                                                                         ",
"........   .     .    .......         ..          .....     .......         ......      .....    ........    .....     .    ..      ...     ........              ..     ....     ........   .......    .......   ......                ..   .     ..    .....      .....          ..         .    ..     .....    ..    ..         ..   ..     ....     .     .           ....      .....        ...           ",
"........   .    ...   .......   ..    ..          .....     .......        .......     ......    ........    .....     .    ...     ...     ........        ..   ...    ......    ........   .......   ........   .......         ..    ..   .    ...    .....      ......   ..    ..         .    ...    .....    ...  ...        ...   ..    ......    .    ...         ......     ......      ....           ",
"   ..      .    ...   ..        ...   ..           ...        ...          ..  ....   ...   ..   ...        ...        ..   ...      ..        ..           ... ....   .   ....     ...        ...     ...        ...  ...        ..    ..   .    ...     ...      ..   ...  ..    ..         .    ...  ..  ....   ...  ...        ...   ..   ...  ...   .    ...        ...  ...   ..   ...     ....           ",
"   ..      ........   ......    ....  ..           ...        ...          ..  .....  ...   ..   .......     .....     ...  ...                ..           ........   .   ....     ...        ...     .......    ...  ...        .. .  ..   ........      ..      ..        ........         . .  ...  ..  ....    ......          ......    ...  ...   .    ...        ...        ..   ...     ....           ",
"   ..      ..   ...   ...       .. .....           ...        ...          ..  .....  ...   ..   ...           ....    . ......                ..           ........   ........     ...        ...     ....       .......         ........   ..   ...      ..      ..        ..   ...         ........  ........     ....            ....     ...  ...   .    ...        ... ....   ..   ...     ....           ",
"   ..      .    ...   ..        .. .....           ...        ...          ..  .....  ...   ..   ...            ....   . ......                ..           .. .  ..   ........     ...        ...     ...        .......         ........   .    ...      ..      ..        ..    ..         ........  ........      ..              ...     ...  ...   .    ...        ... ....   ..   ...     ....           ",
"   ..      .    ...   ..        ..  ....           ...        ...          ..  ....   ...   ..   ...        .   ....   .   ....                ..           ..    ..   .   ....     ...        ...     ...        ... ..          ... ....   .    ...     ...      ..   ...  ..    ..         ..  ....  ..  ....      ..              ...     ...  ...   .   ....        ...  ...   ..   ...                    ",
"   ..      .    ...   ........  ..    ..          .....       ...          .......     ......    ........    ......    .    ...                ..           ..    ..   .   ....     ...        ...     ........   ...  ...        ..    ..   .    ...    .....      .....    ..    ..         .    ...  ..  ....      ..              ...      ......     ......          .......    ......      ....           ",
"                                                                                                                                                                                                                                                                                                                                                                                                                ",
"                                                                                                                                                                                                                                                                                                                                                                                                                ",
"                                                                                                                                                                                                                                                                                                                                                                                                                ",
"                                                                                                                                                                                                                                                                                                                                                                                                                ",
"                                                                                                                                                                                                                                                                                                                                                                                                                ",
"                                                                                                                                                                                                                                                                                                                                                                                                                ",
"...  ...    .....     .    ...         .....     .    ...    .....    .    ...   ..         ......          ........    .....    ........         .......   ..    ..   ........        ..    ..   .    ...    .....     .    ...  .......     ......     ......    .    ...        .    ...    .....    ..    ..   ........   ........   .    ...  ........   ...        ........    .....      .....       ....",
"...  ...   ...  ...   .    ...        ...       ..    ...  ...  ...   .    ...   ...        .  ....         ...        .  ....      ...             ...     ..    ..   ...             ... ....   .    ...   ...       ..    ...  ...  ...   ...  ...   ...  ...   ..  ....        ..   ...   ..   ..   ...   ..   ...          ...      .    ...  ...        ...        ...        ...        ..           ....",
"...  ...   ..   ...   .    ...        ...       ..   ....  ...   ..   .    ...   ...        .   ....        ...        .   ....     ...             ...     ..   ...   ...             ... ....   .    ...   ...       ..   ....  ...   ..   ...  ...   ...  ...   ........        ...  ...   ..   ...  ...   ..   ...           ..      .    ...  ....       ...        ...        ...        ...          ....",
" ......    ..   ...   .    ...         ......   .........  ...   ..   .    ...   ...        .   ....        ......     .  .....     ...             ...     ........   .......         ........   .    ...    ......   .........  ...   ..   ...  ...   ...  ...   ........        .... ...   ..   ...  ....  ..   .......       ..      ........  .......    ...        .......     ......     .....       ....",
"   ..      ..   ...   .    ...            ....  ..    ...  ...   ..   .    ...   ...        .   ....        ..         ........     ...             ...     ..    ..   ...             .. .  ..   .    ...       ....  ..    ...  .......    ...  ...   ...  ...   . .. ...        . ......   ..   ...  .. .....   ...           ..      .    ...  ...        ...        ...            ....      .....     ....",
"   ..      ..   ...   .   ....        .   ....  ..    ...  ...   ..   .   ....   ...        .   ....        ..         .  .....     ...             ...     ..    ..   ...             ..    ..   .   ....   .   ....  ..    ...  ... ..     ...  ...   ...  ...   .    ...        .  .....   ..   ...  ..  ....   ...           ..      .    ...  ...        ...        ...        .   ....   .   ....         ",
"   ..      ...  ..    .  ....         .  ....   ..    ...   ..  ...   .   ....   ...        .  ....         ...        .   ....     ...             ...     ..    ..   ...             ..    ..   .   ....   .  ....   ..    ...  ...  .     ...  ...   ...  ...   .    ...        .   ....   ...  ..   ..   ...   ...           ..      .    ...  ...        ...        ...        .  ....    .  ....          ",
"   ..       ......     .....           .....    ..    ...    .....     ......    ........   ......          ........   .   ....     ...             ...     ..    ..   ........        ..    ..    ......     .....    ..    ...  ...   ..    ......     ......    .    ...        .    ...    .....    ..    ..   ........      ..      .    ...  ........   ........   ........    .....      .....       ...."
};
