/* XPM */
static char *CAT_2_resized[] = {
/* columns rows colors chars-per-pixel */
"400 7 2 1 ",
"  c None",
". c white",
/* pixels */
".....   ........       ......    .......  ......    .......  ..   ...  ......     .....         .....          .....    .....     .....    ......        ......    .......   .....    ..              ....    .    ..       ..   ...  .    ..   .......  ......    .......       ...  ...   .....    .    ..       .    ..    .....   ..   ...  .......        .......   .....          .....     ....      ....",
" ...       ..          .  ....   ..       ...  ..   ..       ...  ...  .   ...   ..            .   ...        ..  ...  ...  ..   ..   ..   .  ....       .  ....   ..       ..  ...   ..             ..  ..   ..   ..       ..   ...  .    ..   ..       ...  ..   ...           ...  ...  ...  ..   .    ..       .    ..   .  ....   ..  ...    ...            ...    ...  ..        ..  ...   ..  ..     ....",
" ...       ..          .   ...   .....    ...  ..   .....    .... ...  .   ...    ....         .   ...        ..       ...  ...  ..   ..   .  ....       .   ...   .....    ..  ....  ..            ...  ...  ...  ..       .. . ...  .......   .....    ...  ...  ......         ......   ...  ..   .    ..       .    ..   .  ....   ... ...     ..            ..     ...  ..        ..       ...  ...    ....",
" ...       ..          .   ...   .....    .......   .....    ........  .   ...     ....        .......        ..       ...  ...  ..   ..   .  ....       .   ...   .....    ........  ..            ...  ...  .......       ........  .......   .....    .......   .....           ....    ...  ..   .    ..       .......   .......  ........     ..            ..     ...  ..        ..  .    ...  ...    ....",
" ...       ..          .   ...   ..       ......    ..       .. .....  .   ...      ....       .......        ..  ...  ...  ...  ..   ..   .  ....       .   ...   ..       ........  ..            ...  ...  .  ....       ........  .    ..   ..       ......    ..               ..     ...  ..   .   ...       .......   .......  .. .....     ..            ..     ...  ..        ..  ...  ...  ...     ...",
" ...       ..          .  ....   ..       ...       ..       ..  ....  .   ...   .  ....       .   ...        ..  ...  ...  ..   ..   ..   .  ....       .  ....   ..       ..  ....  ...            ..  ..   .   ...       ... ....  .    ..   ..       ... .     ...              ..     ...  ..   .  ....       ..  ...   .  ....  ..  ....     ..            ..     ...  ..        ..  ...   ..  ..         ",
".....      ..          ......    .......  ...       .......  ..   ...  ......     .....        .   ...         ......   .....     .....    ......        ......    .......  ..  ....  .......         ....    .    ..       ..   ...  .    ..   .......  ...  ...  .......          ..      .....     .....        .    ..   .  ....  ..   ...     ..            ..      .....          ......    ....      ...."
};
